<svg xmlns="http://www.w3.org/2000/svg" width="1284.027" height="359.582">
  <path
      id="name"
      d="M176.27 358.98c-18.551-2.675-32.9-12.625-41.192-28.565-9.706-18.655 1.053-27.086 11.29-8.847 30.554 54.432 110.88 6.754 118.303-70.22 1.96-20.319-1.364-38.008-13.4-71.324-19.79-54.78-20.21-94.314-1.4-131.874 16.058-32.06 50.273-53.833 73.612-46.84 15.82 4.74 13.793 26.567-3.067 33.006-5.49 2.095-5.45 1.278.34-7.053 10.224-14.71-8.86-17.795-29.708-4.805-38.753 24.146-51.02 83.246-29.65 142.854 15.74 43.898 17.947 53.384 17.927 77.02-.054 64.304-52.713 123.908-103.054 116.648zm150.1-5.76c-19.087-1.775-39.236-16.644-41.046-30.29-1.168-8.8 6.134-7.148 18.349 4.155 35.87 33.19 94.089-6.68 91.659-62.77-.847-19.55-6.037-32.284-28.336-69.536-27.016-45.13-33.49-71.4-26.097-105.887 9.72-45.336 50.516-82.503 85.18-77.6 19.596 2.77 27.473 19.283 14.703 30.82-7.407 6.692-17.864 4.975-11.18-1.836 15.62-15.915-13.552-20.919-35.677-6.12-31.751 21.24-46.998 60.518-39.012 100.508 2.785 13.944 8.439 26.4 22.133 48.76 21.467 35.05 28.824 51.176 31.976 70.092 8.886 53.312-33.37 104.285-82.652 99.703zm582.87-4.36c-18.01-1.898-37.96-16.104-40.3-28.699-1.705-9.19 5.863-8.583 16.622 1.333 42.338 39.018 107.66-16.883 90.823-77.723-3.787-13.686-9.992-26.673-23.097-48.348a13389.3 13389.3 0 0 1-11.416-18.909c-35.093-58.35-23.191-125.119 28.396-159.312 24.908-16.51 56.23-13.42 59.727 5.89 1.617 8.926-8.406 20.104-16.64 18.56-3.82-.717-3.944-2.21-.48-5.74 15.555-15.85-13.537-20.929-35.547-6.206-28.626 19.148-44.208 53.266-40.787 89.306 2.003 21.092 6.309 31.255 29.447 69.502 36.26 59.938 36.78 101.341 1.73 137.573-13.938 14.406-40.773 26.28-52.902 23.407-.2-.048-2.71-.333-5.575-.635zm116.27-75.968c-2.77-2.33-3.268-5.087-2.015-11.125 1.188-5.728 3.52-23.606 5.098-39.07 2.675-26.224 4.156-30.48 9.69-27.85 4.177 1.981 4.666 4.381 4.339 21.281-.296 15.251-.296 15.251 2.676 11.64 16.87-20.504 32.192-29.59 42.959-25.48 10.487 4.006 8.576 16.058-2.168 13.671-5.83-1.295-11.826 1.966-21.42 11.65-6.583 6.645-6.422 6.2-4.263 11.84 3.014 7.875 11.01 14.493 20.994 17.374 4.57 1.32 12.525 6.002 12.142 7.15-1.687 5.06-16.564 6.347-25.43 2.2-7.801-3.652-15.84-13.604-15.84-19.616 0-4.79-6.892 4.136-12.176 15.775-4.27 9.404-4.792 10.268-6.843 11.33-2.921 1.51-5.316 1.272-7.742-.77zm241.228-.705c-11.85-3.268-27.558-21.13-27.558-31.337 0-4.884-9.23 10.99-11.643 20.024-3.645 13.645-15.994 14.585-15.994 1.218 0-11.998 4.595-52.223 6.266-54.85 3.84-6.042 7.13-.486 7.406 12.511.26 12.253.448 13.07 2.423 10.58 12.412-15.662 29.82-24.853 39.36-20.782 1.5.64 2.727 1.355 2.727 1.588 0 1.6-4.038 5.324-10.122 9.336-18.423 12.147-18.908 13.628-8.03 24.528 10.18 10.202 13.917 12.77 24.158 16.6 15.454 5.778 7.505 15.134-8.993 10.584zm-809.321-1.46c-36.07-6.856-42.055-51.94-9.146-68.9 29.974-15.447 66.093-1.083 55.777 22.182-5.075 11.445-34.115 25.157-53.414 25.221-4.204.014-4.321.667-.585 3.257 8.45 5.855 21.81 6.234 38.885 1.103 8.7-2.615 20.79-2.906 20.79-.5 0 10.711-31.992 21.5-52.307 17.637zm-4.587-35.702c31.748-6.473 47.585-18.476 31.574-23.93-14.08-4.799-35.42 3.043-41.52 15.256-2.752 5.512-2.995 11.974-.411 10.983.604-.232 5.265-1.27 10.357-2.31zm348.438 35.24c-15.393-2.347-10.028-13.719 6.493-13.76 31.24-.083 48.85-26.55 67.777-101.867 12.683-50.473 23.75-77.033 32.103-77.033 2.534 0 2.562.31.323 3.597-2.641 3.876-5.012 12.68-9.803 36.403-12.76 63.17-24.696 101.22-38.448 122.545-13.188 20.451-37.992 33.232-58.445 30.114zm316.92-.226c-16.79-6.25-12.993-37.894 6.3-52.507 14.63-11.082 36.873-10.549 36.873.884 0 1.2.524 1.838 1.765 2.15 3.794.952 4.386 2.584 4.818 13.294.558 13.797 3.297 18.801 12.977 23.706 8.249 4.18 9.773 6.977 4.986 9.15-10.024 4.55-22.946-1.762-28.778-14.056-2-4.217-2-4.217-6.702 1.425-11.045 13.252-23.258 19.296-32.238 15.954zm11.016-14.54c7.28-3.699 14.94-12.42 23.13-26.335 4.682-7.954 4.587-7.31 1.21-8.248-14.565-4.045-33.833 14.637-31.987 31.013.632 5.61 2.195 6.34 7.647 3.57zM24.178 268.165C9.832 264.405.842 255.957.053 245.5c-.946-12.537 11.044-20.377 18.66-12.202 2.42 2.598 2.017 4.048-1.272 4.574-7.45 1.19-4.22 10.378 5.174 14.716 22.1 10.206 59.344-8.089 80.263-39.428 5.32-7.97 5.668-7.555-6.337-7.555-16.72 0-7.913-8.706 10.054-9.938 8.614-.59 9.713-2.796 27.21-54.602 18.024-53.369 27.569-68.187 43.92-68.187 34.347 0 31.772 80.483-5.63 175.916-6.342 16.186-10.995 21.941-15.7 19.423-4.184-2.24-3.794-8.375 1.367-21.52 3.048-7.763 14.509-40.58 14.509-41.546 0-.467-38.808-.3-43.472.188-4.412.461-4.412.461-8.743 7.818-23.391 39.736-64.397 63.262-95.878 55.01zm151.662-75.47c13.848-52.716 15.737-92.94 4.874-103.804-7.667-7.668-16.844 8.527-34.652 61.153-4.86 14.358-10.44 30.065-12.404 34.904-1.963 4.84-3.57 9.051-3.57 9.36 0 .31 4.992.363 11.092.12 6.1-.246 14.527-.17 18.727.166 15.212 1.22 15.11 1.232 15.933-1.9zm358.619 74.118c-5.384-5.383-1.297-57.659 5.148-65.852 5.112-6.5 7.716 2.295 7.913 26.731.023 2.815.023 2.815 5.12-1.992 16.614-15.673 36.382-12.515 46.053 7.36 1.932 3.97 1.907 3.976 6.14-1.843 21.736-29.885 44.642-26.33 47.48 7.368 1.177 13.98 1.665 14.716 11.16 16.837 6.03 1.347 12.218 4.514 11.913 6.097-.796 4.134-11.6 8.122-18.326 6.763-13.344-2.697-16.981-8.67-19.274-31.659-.416-4.168-1.193-7.892-1.86-8.909-4.543-6.935-19.9 7.933-27.416 26.547-6.36 15.745-14.578 15.22-18.122-1.158-6.676-30.846-27.018-29.995-39.858 1.666-4.274 10.54-4.747 11.406-6.964 12.758-3.297 2.01-6.645 1.748-9.107-.714zm304.957-82.33c-12.225-2.418-23.976-16.678-28.546-34.643-6.06-23.818-3.662-60.962 3.935-60.962 3.383 0 3.873 2.033 5.465 22.647 3.296 42.676 7.35 52.616 24.967 61.222 6.485 3.168 10.405 6.601 9.684 8.482-1.17 3.046-8.633 4.612-15.505 3.253z" />
</svg>
